<svg width="512" height="512" viewBox="0 0 512 512" fill="none" xmlns="http://www.w3.org/2000/svg">
<path fill-rule="evenodd" clip-rule="evenodd" d="M205.462 307.507L274.56 273.312L203.738 212.93L225.647 202.1L340.285 240.785L395.047 213.681C409.493 206.443 433.345 208.385 438.753 219.307C439.615 221.048 440 223.027 440 225.153C439.945 236.313 428.762 251.432 416.735 257.479L361.973 284.582L323.272 399.17L301.363 410L296.248 317.109L227.15 351.304L212.887 385.627L197.578 393.214L192.207 341.335L154.183 305.619L169.51 298.033L205.462 307.507V307.507ZM165.367 384.363C77 412.602 7.16833 340.822 0 299.554C28.8383 331.311 84.7733 359.312 146.172 340.895L162.415 356.27L165.367 384.363ZM2.45667 256.361C0.843333 246.557 0 236.496 0 226.253C0 125.042 82.0783 43 183.333 43C273.662 43 348.755 108.33 363.88 194.293L334.437 208.99C311.52 200.286 253.018 178.442 253.018 178.442C241.193 174.282 228.47 170.104 222.09 172.248C223.667 165.303 219.083 159.054 212.172 154.033C210.467 152.787 196.698 143.258 200.42 149.525L212.483 161.509C211.878 161.913 209.312 157.148 209.312 160.63C210.118 158.577 209.605 169.481 207.717 165.908C206.892 164.551 209.092 163.8 207.808 161.839C207.808 160.538 204.343 159.274 203.647 158.394C201.74 156.012 196.662 150.789 193.912 149.543C193.16 149.195 182.252 150.881 181.335 151.229L178.603 155.975C176.312 156.818 174.203 157.899 172.187 159.237L169.803 164.625C168.74 165.541 158.107 169.059 158.052 169.206C158.51 168.052 150.608 166.586 151.122 164.295C151.708 161.784 154.385 153.904 153.688 151.046C152.955 148.022 170.097 155.37 171.215 147.436C171.655 144.009 171.912 139.996 166.412 139.428C167.457 139.537 177.045 135.671 178.622 133.93C180.858 131.364 185.973 127.15 189.695 127.15C194.022 127.15 193.087 120.846 195.085 117.767C197.083 118.573 194.003 123.503 196.405 125.5C196.258 123.943 203.207 126.362 203.885 126.013C205.48 125.152 214.353 125.665 212.978 121.487C211.438 117.254 213.748 118.518 215.728 117.62C215.38 117.767 220.917 108.183 221.87 111.317C221.228 108.091 215.453 112.453 213.437 112.306C208.78 111.921 210.742 104.353 212.52 102.136C213.877 100.376 208.798 98.2323 208.743 101.586C208.652 106.607 203.977 111.152 205.04 117.84C206.708 127.901 193.82 115.421 192.702 116.099C188.412 118.683 184.928 112.838 187.128 109.301C189.402 105.709 194.828 105.892 197.102 102.044C198.678 99.3319 200.512 96.1799 202.987 94.1092C211.145 87.2555 213.4 92.7348 221.54 93.4861C229.515 94.2191 224.235 95.3736 223.153 98.4339C222.09 101.348 227.517 102.374 229.387 99.9366C230.468 98.5439 232.907 95.0071 233.952 92.4049C235.308 89.0147 247.72 89.3996 239.048 84.2135C233.328 80.805 208.432 73.9514 191.748 73.9514C188.137 73.9514 185.625 77.9463 182.875 80.2369C177.43 84.7449 163.515 93.596 155.76 90.9022C147.822 88.1718 130.845 100.981 128.132 101.073C127.123 101.128 128.168 91.3787 133.595 90.6823C131.23 91.0122 152.643 79.8704 152.057 77.5431C151.36 74.7943 109.303 90.0959 111.173 93.1746C112.053 94.5673 115.738 94.5673 110.935 97.6642C108.185 99.3135 105.233 109.887 102.648 109.887C94.93 113.259 94.4533 103.253 85.8733 116.136L72.1967 121.652C51.92 143.184 37.895 170.471 32.7983 200.78C32.5967 202.008 37.895 204.226 38.5917 205.069C40.2967 207.121 40.2967 215.935 41.14 218.831C43.2483 226.124 48.455 230.193 52.4517 236.826C54.7983 240.785 58.7033 250.79 57.475 254.932C59.1433 252.219 73.8283 267.393 76.505 270.545C82.83 277.985 87.725 287.001 77.44 294.349C74.7633 296.292 79.7317 306.407 79.42 312.125C32.6333 303.09 2.45667 256.361 2.45667 256.361V256.361ZM191.437 271.608C191.253 268.566 189.347 264.956 185.368 266.11C176.752 268.621 179.373 259.366 173.103 259.806C168.575 260.118 164.853 262.995 160.655 264.259C155.375 265.835 149.967 263.013 144.742 262.353C123.237 259.641 116.233 235.085 121.843 217.347C122.412 214.451 120.102 209.063 121.11 206.828C123.512 201.459 128.462 195.411 132.752 191.343C135.153 189.052 138.27 189.639 141.112 187.861C145.493 185.094 145.548 179.413 149.838 175.931C155.962 170.947 164.303 171.057 172.278 170.012C176.513 169.444 192.683 165.944 195.232 169.096C195.232 169.664 198 177.892 195.177 177.856L194.938 177.837L195.177 177.856C196.808 178.002 198.587 178.772 200.457 179.798L189.915 185.021L186.67 186.872C184.067 188.576 181.72 190.665 179.74 193.047C174.148 199.809 171.637 208.789 172.902 217.475C173.36 220.553 174.277 223.559 175.615 226.363C176.953 229.166 178.713 231.768 180.822 234.059L183.517 236.643L218.368 266.348L202.107 274.411L191.437 271.608V271.608ZM200.787 167.777C200.255 166.769 206.012 166.237 207.038 166.237C208.175 166.366 204.068 173.128 200.787 167.777ZM167.933 120.864L169.583 120.388L168.795 122.477C170.115 124.841 169.143 126.252 168.923 127.534L166.65 128.945C165.843 129.972 170.592 130.1 170.628 130.247C170.812 130.76 164.908 131.603 166.008 132.849C167.457 134.938 178.603 129.88 176.825 130.173C180.253 128.432 177.265 128.249 175.34 127.26C174.68 123.979 174.13 118.903 172.095 116.887L173.433 115.33C170.262 110.767 167.933 120.864 167.933 120.864ZM160.05 129.184C158.748 129.715 157.465 128.89 158.73 127.608L160.068 125.977L159.94 125.244L161.003 123.924L162.103 123.649L164.377 122.055C165.037 122.202 166.595 123.485 166.063 124.309L164.853 125.812C164.578 128.359 162.012 128.341 160.087 129.165L160.05 129.184L160.087 129.165L160.05 129.184V129.184Z" fill="#1E4FCC"/>
</svg>
